<?xml version="1.0" standalone="no"?><!DOCTYPE svg PUBLIC "-//W3C//DTD SVG 1.1//EN" "http://www.w3.org/Graphics/SVG/1.1/DTD/svg11.dtd"><svg t="1724753081646" class="icon" viewBox="0 0 1024 1024" version="1.1" xmlns="http://www.w3.org/2000/svg" p-id="5146" xmlns:xlink="http://www.w3.org/1999/xlink" width="200" height="200"><path d="M512.149245 0.168664C775.294582 99.447901 936.20814 415.739 798.914921 672.241117l-334.744489-336.589828L590.760685 207.584764l-78.61144-79.718643a159.437287 159.437287 0 0 1-161.651694 33.585169l-254.28771 254.656778 143.93644 143.567371 95.957626-95.588558 335.113557 335.851692C507.351364 889.991115 280.005603 861.572895 110.972553 687.372896l-81.194915 81.194915a735.552113 735.552113 0 0 0 70.122881 89.683474 125.113982 125.113982 0 0 1-9.226695 8.488559 85.623728 85.623728 0 0 0-14.024576-2.214407A80.087711 80.087711 0 0 0 0.252215 945.351284a78.242372 78.242372 0 0 0 78.242372 78.242372A80.456779 80.456779 0 0 0 158.951366 944.982216a90.052542 90.052542 0 0 0-2.214406-14.393644l12.548305-12.179237c192.653388 129.911863 403.760166 147.627118 631.105927 9.964831l93.74322 94.112287 128.435592-126.590253-94.481355-95.588559C1198.984409 391.749593 837.667039-9.427099 512.149245 0.168664z" fill="#000000" p-id="5147"></path></svg>