<?xml version="1.0" standalone="no"?><!DOCTYPE svg PUBLIC "-//W3C//DTD SVG 1.1//EN" "http://www.w3.org/Graphics/SVG/1.1/DTD/svg11.dtd"><svg t="1722900715478" class="icon" viewBox="0 0 1024 1024" version="1.1" xmlns="http://www.w3.org/2000/svg" p-id="1165" xmlns:xlink="http://www.w3.org/1999/xlink" width="32" height="32"><path d="M680 160h128c30.928 0 56 25.072 56 56v593c0 30.928-25.072 56-56 56H680c-30.928 0-56-25.072-56-56V216c0-30.928 25.072-56 56-56z m-464 0h128c30.928 0 56 25.072 56 56v593c0 30.928-25.072 56-56 56H216c-30.928 0-56-25.072-56-56V216c0-30.928 25.072-56 56-56z" fill="#1296db" p-id="1166"></path></svg>